<?xml version="1.0" standalone="no"?>
<!DOCTYPE svg PUBLIC "-//W3C//DTD SVG 20010904//EN"
 "http://www.w3.org/TR/2001/REC-SVG-20010904/DTD/svg10.dtd">
<svg version="1.0" xmlns="http://www.w3.org/2000/svg"
 width="900.000000pt" height="900.000000pt" viewBox="0 0 900.000000 900.000000"
 preserveAspectRatio="xMidYMid meet">
<metadata>
Created by potrace 1.11, written by Peter Selinger 2001-2013
</metadata>
<g transform="translate(0.000000,900.000000) scale(0.100000,-0.100000)"
fill="#000000" stroke="none">
<path d="M4340 7912 c-84 -147 -218 -379 -298 -517 -255 -441 -369 -639 -391
-675 -11 -19 -24 -42 -28 -50 -4 -8 -28 -51 -54 -95 -91 -154 -299 -517 -299
-521 0 -3 -8 -17 -19 -32 -10 -15 -131 -223 -269 -462 -137 -239 -259 -451
-271 -470 -11 -19 -39 -69 -63 -110 -23 -41 -67 -118 -98 -170 -31 -52 -59
-103 -63 -112 -6 -17 106 -17 2008 -18 1108 0 2015 2 2015 5 0 6 -21 44 -190
335 -81 140 -156 271 -167 290 -11 19 -62 107 -113 195 -51 88 -104 180 -118
205 -30 54 -62 108 -80 135 -6 11 -15 27 -19 35 -4 8 -68 121 -143 250 -75
129 -208 359 -294 510 -87 151 -182 316 -211 365 -29 50 -171 295 -315 545
-267 464 -336 582 -355 612 -9 13 -38 -31 -165 -250z"/>
<path d="M2485 4432 c3 -7 38 -70 79 -140 40 -70 84 -145 96 -167 12 -22 64
-112 115 -200 51 -88 102 -176 113 -195 10 -19 59 -102 107 -185 48 -82 97
-168 110 -190 12 -22 40 -69 60 -105 44 -75 78 -134 98 -170 16 -29 153 -268
167 -290 5 -8 62 -107 127 -220 64 -113 158 -275 208 -360 50 -86 94 -162 98
-170 4 -8 17 -31 28 -50 29 -48 502 -866 557 -963 24 -44 48 -75 52 -70 8 7
193 326 258 443 14 25 35 61 47 80 12 19 33 55 47 80 14 25 51 90 83 145 127
220 434 752 452 785 11 19 43 73 70 120 43 73 238 411 300 520 11 19 80 139
153 265 73 127 142 246 153 265 11 19 53 94 95 165 41 72 99 171 127 220 29
50 91 157 139 239 47 81 86 151 86 155 0 3 -907 6 -2015 6 -1656 0 -2014 -2
-2010 -13z"/>
<path d="M2259 4303 c-8 -10 -19 -27 -25 -38 -6 -11 -104 -182 -219 -380 -114
-198 -217 -376 -227 -395 -11 -19 -39 -66 -62 -105 -22 -38 -46 -81 -53 -95
-7 -14 -17 -32 -23 -40 -16 -23 -200 -342 -200 -346 0 -2 -19 -36 -43 -76
-108 -181 -337 -579 -337 -584 0 -3 -8 -17 -19 -32 -15 -21 -255 -436 -348
-602 -11 -19 -34 -58 -50 -86 -17 -27 -41 -70 -55 -95 -29 -52 -195 -338 -284
-492 -35 -59 -60 -107 -56 -108 4 -1 912 -2 2018 -3 l2012 -1 -15 30 c-9 17
-48 86 -88 155 -40 69 -82 141 -93 160 -11 19 -61 107 -112 195 -51 88 -98
169 -104 180 -11 19 -228 394 -246 425 -36 61 -180 313 -180 315 0 2 -22 40
-50 84 -27 44 -50 83 -50 86 0 2 -38 69 -83 147 -46 79 -95 163 -109 188 -14
25 -106 185 -205 355 -175 302 -505 873 -542 938 -10 18 -44 77 -75 132 -31
54 -58 101 -60 102 -1 2 -9 -5 -17 -14z"/>
<path d="M6707 4302 c-10 -10 -17 -21 -17 -24 0 -6 -5 -14 -305 -533 -114
-198 -216 -374 -226 -392 -51 -91 -324 -561 -338 -583 -8 -14 -16 -27 -16 -30
0 -3 -10 -21 -21 -40 -12 -19 -97 -165 -189 -325 -93 -159 -176 -303 -186
-320 -10 -16 -24 -41 -32 -55 -20 -38 -323 -564 -377 -655 -117 -199 -290
-503 -290 -511 0 -9 4015 -12 4024 -4 3 4 -65 126 -214 380 -54 91 -368 637
-395 685 -13 22 -120 208 -239 413 -119 205 -216 378 -216 383 0 5 -4 9 -10 9
-5 0 -10 4 -10 9 0 5 -38 75 -85 156 -47 80 -96 165 -109 188 -35 63 -312 542
-359 622 -23 39 -49 84 -58 101 -21 38 -310 538 -313 542 -2 1 -10 -6 -19 -16z"/>
</g>
</svg>
