<?xml version="1.0" standalone="no"?>
<!DOCTYPE svg PUBLIC "-//W3C//DTD SVG 20010904//EN"
 "http://www.w3.org/TR/2001/REC-SVG-20010904/DTD/svg10.dtd">
<svg version="1.0" xmlns="http://www.w3.org/2000/svg"
 width="582.000000pt" height="582.000000pt" viewBox="0 0 582.000000 582.000000"
 preserveAspectRatio="xMidYMid meet">
<metadata>
Created by potrace 1.11, written by Peter Selinger 2001-2013
</metadata>
<g transform="translate(0.000000,582.000000) scale(0.100000,-0.100000)"
fill="#000000" stroke="none">
<path d="M1979 5173 c-13 -16 -12 -17 4 -4 16 13 21 21 13 21 -2 0 -10 -8 -17
-17z"/>
<path d="M2408 5157 c-35 -8 -55 -37 -26 -37 18 0 -4 -19 -27 -23 -11 -2 -28
-7 -38 -12 -10 -4 -20 -5 -23 -2 -3 2 -20 1 -39 -3 -24 -5 -35 -4 -39 5 -5 13
-52 9 -71 -6 -6 -4 -22 -10 -35 -13 -31 -5 -55 -14 -100 -34 -19 -9 -44 -16
-54 -17 -11 -1 -22 -7 -24 -13 -2 -7 -15 -12 -28 -12 -13 0 -24 -5 -24 -11 0
-5 -4 -8 -8 -5 -5 3 -20 -1 -33 -8 -14 -7 -37 -11 -52 -9 -15 2 -27 -1 -27 -7
0 -5 -8 -10 -18 -10 -11 0 -29 -9 -42 -20 -13 -11 -29 -20 -36 -20 -7 0 -14
-5 -16 -11 -2 -5 -10 -11 -18 -13 -8 -1 -25 -7 -36 -14 -12 -6 -24 -8 -28 -5
-3 3 -6 0 -6 -8 0 -9 -16 -21 -35 -29 -19 -8 -35 -17 -35 -22 0 -4 -9 -8 -20
-8 -12 0 -44 -17 -73 -37 -62 -45 -87 -61 -107 -70 -8 -4 -20 -14 -27 -22 -7
-9 -13 -12 -13 -7 0 5 -10 -2 -22 -15 -13 -13 -40 -29 -61 -36 -36 -11 -38
-11 -31 10 8 26 64 79 78 74 6 -2 19 4 29 12 38 31 106 101 99 102 -4 0 1 4
11 8 10 4 17 9 15 12 -6 11 24 39 34 33 10 -6 28 12 28 29 0 8 -46 9 -77 1
-14 -4 -20 -11 -16 -22 4 -10 2 -13 -5 -8 -6 3 -17 0 -24 -7 -7 -8 -20 -12
-30 -9 -10 2 -18 0 -18 -6 0 -6 -8 -9 -17 -8 -9 2 -33 -8 -52 -21 -54 -36
-163 -154 -157 -169 3 -7 1 -16 -5 -20 -6 -4 -6 -11 2 -20 10 -12 8 -16 -9
-21 -12 -3 -19 -9 -16 -14 3 -5 0 -9 -5 -9 -6 0 -11 -10 -11 -21 0 -17 -5 -20
-23 -17 -25 5 -52 -17 -52 -42 0 -8 -8 -16 -19 -18 -11 -2 -16 0 -12 6 3 6 2
13 -3 16 -9 6 -63 -59 -68 -81 -2 -7 -5 -21 -6 -30 -2 -9 -9 -19 -15 -21 -7
-2 -9 -8 -6 -14 4 -6 1 -9 -7 -6 -15 5 -19 2 -72 -63 -20 -25 -37 -51 -37 -58
0 -6 -4 -11 -9 -11 -7 0 -14 -15 -26 -55 -1 -5 -25 -48 -52 -95 -67 -116 -104
-191 -109 -222 -1 -4 -3 -11 -4 -15 -1 -5 -2 -11 -1 -15 0 -5 -4 -8 -11 -8 -6
0 -9 -2 -6 -6 3 -3 -7 -35 -23 -72 -16 -37 -29 -75 -29 -85 0 -10 -7 -20 -15
-24 -9 -3 -15 -13 -14 -22 3 -29 -1 -39 -18 -56 -9 -10 -17 -36 -18 -61 -1
-24 -8 -51 -15 -59 -10 -12 -10 -15 4 -15 12 0 15 -6 11 -22 -3 -13 -8 -36
-10 -53 -2 -16 -4 -30 -5 -30 -1 0 -3 -7 -5 -15 -10 -49 -27 -100 -33 -99 -20
3 -28 -3 -29 -21 -2 -20 -2 -20 23 -1 29 22 62 18 43 -5 -9 -11 -9 -14 0 -14
14 0 4 -41 -12 -52 -15 -10 -17 -190 -2 -205 10 -10 14 -8 18 7 3 11 1 18 -4
14 -5 -3 -6 2 -3 11 6 15 9 15 21 2 12 -11 15 -44 16 -136 1 -67 5 -121 9
-121 4 0 7 -8 6 -17 0 -18 4 -34 21 -90 5 -18 7 -33 4 -33 -3 0 0 -6 6 -14 16
-19 -12 -48 -37 -39 -15 6 -15 5 -3 -10 7 -9 11 -17 8 -17 -3 0 -1 -15 4 -32
6 -18 12 -40 14 -48 2 -8 8 -30 14 -47 5 -18 7 -33 4 -33 -3 0 -1 -6 5 -12 5
-7 13 -28 17 -46 3 -17 11 -32 16 -32 6 0 8 -4 4 -9 -3 -5 1 -16 9 -24 8 -8
12 -17 9 -21 -4 -3 -1 -6 5 -6 6 0 9 -6 6 -14 -3 -7 8 -38 25 -69 16 -30 27
-58 24 -61 -4 -3 1 -6 11 -6 9 0 15 -4 12 -9 -3 -5 2 -15 12 -22 14 -11 15
-11 5 0 -6 7 -9 19 -6 27 5 15 33 7 33 -10 0 -6 9 -17 21 -24 12 -7 18 -16 15
-19 -3 -3 6 -21 21 -39 14 -19 22 -34 19 -34 -4 0 -2 -9 4 -20 6 -11 16 -17
22 -14 7 5 9 2 5 -8 -3 -9 0 -21 6 -27 8 -8 5 -11 -11 -11 -30 0 -28 -19 6
-55 15 -16 52 -64 81 -105 30 -41 66 -87 81 -101 15 -15 30 -33 32 -40 2 -6
15 -14 27 -16 13 -2 32 -12 41 -23 10 -11 20 -20 24 -20 13 0 56 -49 66 -74 5
-14 7 -34 5 -45 -2 -11 -1 -20 3 -18 12 3 62 -45 56 -55 -3 -5 -2 -8 3 -7 29
5 42 -2 38 -22 -3 -15 0 -19 11 -15 21 8 44 -17 44 -48 0 -30 -7 -32 -38 -10
-12 8 -22 10 -22 5 0 -6 4 -11 8 -11 5 0 20 -9 33 -21 13 -11 34 -29 47 -40
12 -10 27 -19 33 -19 5 0 7 -5 4 -10 -3 -6 0 -10 7 -10 8 0 21 -8 29 -18 9 -9
26 -24 39 -32 13 -8 30 -23 39 -32 8 -10 20 -18 26 -18 6 0 22 -11 37 -25 15
-14 32 -25 37 -25 6 0 14 -6 18 -13 8 -13 58 -39 101 -52 12 -3 20 -11 17 -16
-4 -5 1 -9 10 -9 9 0 48 -14 88 -31 40 -17 80 -31 90 -32 9 -1 17 -5 17 -9 0
-4 6 -8 13 -8 8 0 39 -10 70 -23 47 -19 55 -25 44 -37 -10 -12 -9 -12 5 -1 14
10 24 10 55 0 43 -15 62 -20 81 -21 6 -1 12 -5 12 -10 0 -4 10 -8 21 -8 12 0
65 -14 118 -31 53 -17 101 -32 106 -34 6 -1 17 -5 25 -8 14 -6 83 -13 190 -22
25 -1 57 -8 72 -13 17 -7 28 -7 30 -1 2 5 21 0 43 -11 32 -16 51 -19 110 -14
38 3 99 7 135 10 145 9 160 11 167 17 3 4 17 0 29 -8 12 -8 24 -10 26 -5 4 11
48 21 103 24 23 1 46 6 53 10 7 4 12 2 12 -3 0 -17 40 -13 46 4 5 11 10 13 19
5 16 -13 45 -2 45 17 0 9 6 13 14 10 8 -3 19 0 25 7 11 14 39 15 59 2 7 -4 12
-2 12 4 0 6 4 9 9 6 5 -3 14 1 21 10 7 8 20 12 28 9 17 -6 75 33 67 46 -4 5
-1 10 4 10 6 1 20 3 31 4 11 1 27 3 36 4 8 0 13 5 10 10 -3 5 6 12 21 16 30 7
69 33 124 79 69 60 84 72 124 96 22 13 42 28 43 32 2 4 9 8 15 8 7 0 24 10 39
23 15 12 42 33 59 47 18 14 40 33 48 43 9 9 21 17 28 17 7 0 13 5 13 11 0 6
18 28 39 49 22 21 37 41 33 44 -3 3 0 6 7 6 6 0 25 16 42 35 17 19 36 32 42
28 5 -3 7 -1 4 5 -9 13 2 44 13 37 4 -2 13 8 19 22 10 22 14 24 22 12 7 -12 9
-12 9 0 0 8 3 11 6 8 4 -4 20 15 37 41 46 73 68 114 64 119 -3 2 11 20 30 38
64 62 67 14 4 -54 -21 -23 -36 -41 -34 -41 3 0 -5 -12 -16 -26 -12 -15 -21
-38 -21 -53 l1 -26 12 23 c7 12 17 19 22 15 4 -4 5 -3 2 3 -4 7 2 22 12 35 10
13 19 29 20 34 1 6 8 9 16 7 7 -1 16 7 20 18 3 11 11 20 16 20 5 0 8 3 7 7 -1
5 3 19 9 33 6 14 12 30 13 35 1 6 6 16 12 22 6 7 8 13 4 13 -3 0 2 9 11 20 10
11 21 20 25 20 11 0 42 34 45 48 2 6 17 34 34 62 17 27 32 56 33 64 1 8 8 21
15 29 7 9 14 22 15 29 2 7 6 20 9 28 5 14 11 41 24 102 3 16 9 28 14 28 5 0 8
3 8 8 -1 4 0 10 1 15 1 4 3 10 4 15 5 23 30 88 36 97 5 6 8 13 8 18 0 4 4 26
8 50 4 23 8 52 8 63 1 12 6 28 12 35 15 19 26 51 15 45 -5 -3 -7 17 -5 45 2
28 -2 61 -8 72 -6 12 -13 35 -15 52 -2 16 -11 41 -21 55 -10 14 -21 33 -25 43
-3 9 -11 17 -17 17 -5 0 -10 5 -10 10 0 19 -50 91 -59 85 -5 -3 -20 8 -34 24
-14 17 -28 27 -31 24 -3 -4 -6 -1 -6 5 0 7 -10 12 -22 12 -12 0 -18 -3 -15 -6
3 -4 2 -15 -4 -26 -10 -18 -12 -18 -28 -4 -22 20 -31 20 -31 1 0 -8 -5 -15
-11 -15 -5 0 -7 -4 -4 -10 3 -5 2 -10 -3 -10 -5 0 -9 -8 -9 -17 0 -36 -3 -42
-18 -37 -11 5 -12 11 -4 25 7 13 6 19 -1 19 -6 0 -9 4 -5 9 8 14 -15 25 -27
13 -5 -5 -11 -35 -13 -66 -2 -31 -8 -64 -14 -73 -5 -10 -12 -34 -15 -53 -14
-86 -34 -147 -53 -168 -7 -7 -13 -22 -13 -32 0 -10 -5 -22 -10 -25 -6 -4 -8
-10 -5 -15 3 -5 -2 -16 -11 -24 -8 -9 -12 -16 -8 -16 3 0 1 -6 -5 -13 -6 -8
-8 -17 -4 -20 3 -4 1 -7 -6 -7 -7 0 -19 -17 -27 -38 -22 -54 -48 -102 -55
-102 -4 0 -6 -8 -6 -18 1 -25 -47 -124 -56 -116 -4 4 -7 0 -7 -10 0 -9 -20
-37 -45 -62 -25 -24 -40 -44 -33 -44 9 0 9 -3 0 -12 -9 -9 -15 -8 -27 8 -9 12
-14 14 -15 6 0 -7 -4 -11 -9 -8 -4 3 -6 -7 -3 -22 3 -15 1 -24 -2 -20 -12 10
-51 -35 -48 -55 2 -11 -1 -16 -6 -13 -6 3 -13 -2 -17 -12 -6 -16 -7 -16 -16 0
-10 17 -59 22 -59 6 0 -4 -7 -8 -15 -8 -8 0 -15 -9 -15 -21 0 -11 -4 -18 -9
-15 -9 6 -26 -22 -23 -36 1 -5 -2 -8 -6 -8 -5 0 -8 -10 -8 -22 1 -13 -3 -23
-9 -23 -20 -1 -80 -30 -92 -45 -7 -8 -13 -11 -13 -6 0 11 -50 -42 -50 -53 0
-5 -7 -12 -16 -15 -10 -4 -13 -2 -9 7 4 6 -1 3 -9 -7 -9 -11 -23 -21 -32 -22
-9 -1 -26 -12 -39 -24 -21 -20 -23 -20 -29 -3 -6 14 -9 15 -16 3 -5 -7 -14
-15 -22 -16 -31 -5 -43 -10 -57 -22 -7 -7 -26 -21 -40 -30 -14 -9 -36 -26 -49
-37 -13 -11 -29 -20 -35 -20 -7 -1 -30 -6 -52 -12 -22 -7 -66 -10 -98 -8 -52
3 -61 0 -90 -26 -17 -16 -37 -30 -44 -30 -27 -3 -32 -4 -39 -12 -11 -11 -36
-9 -29 3 3 6 -1 7 -9 4 -9 -3 -16 -9 -16 -13 0 -4 -8 -7 -17 -8 -10 -1 -32 -4
-50 -8 -18 -3 -34 -1 -38 5 -5 8 -10 8 -20 0 -29 -24 -107 -29 -131 -9 -11 9
-14 9 -14 0 0 -7 -4 -9 -10 -6 -5 3 -10 -1 -10 -9 0 -11 -7 -13 -27 -9 -16 3
-36 5 -45 5 -10 0 -18 4 -18 10 0 5 -7 8 -15 4 -8 -3 -15 0 -15 6 0 7 -5 6
-15 -2 -11 -9 -15 -9 -15 -1 0 7 -5 9 -10 6 -6 -4 -17 -2 -24 4 -10 9 -20 9
-39 0 -14 -6 -32 -9 -39 -7 -7 3 -17 6 -23 7 -5 2 -18 9 -27 18 -10 8 -23 13
-31 10 -7 -2 -21 1 -31 9 -11 7 -23 11 -29 7 -5 -3 -13 1 -18 8 -7 12 -9 12
-9 0 0 -10 -6 -8 -21 7 -11 12 -24 20 -30 17 -5 -4 -9 -2 -9 3 0 5 -28 15 -62
22 -35 7 -67 16 -73 19 -16 9 -38 10 -49 3 -20 -12 -39 -11 -53 4 -8 8 -11 14
-7 14 4 0 0 8 -9 18 -10 10 -14 22 -10 26 5 4 3 7 -2 6 -31 -7 -53 2 -59 23
-5 17 -8 19 -15 8 -6 -9 -11 -10 -15 -2 -4 6 -15 11 -25 11 -10 0 -24 7 -31
15 -9 11 -16 13 -23 6 -7 -7 -20 -2 -39 14 -16 14 -36 25 -44 25 -31 0 -84 40
-84 64 0 9 -6 16 -13 16 -38 0 -26 -40 19 -65 19 -10 34 -22 34 -27 0 -5 5 -6
10 -3 6 3 10 3 10 -2 0 -9 57 -37 63 -31 2 2 11 -3 20 -11 10 -7 17 -11 17 -8
0 4 10 -4 23 -16 13 -12 22 -25 21 -28 -2 -3 2 -6 9 -7 7 -1 23 -3 37 -4 14
-2 33 -11 42 -21 10 -9 25 -17 33 -17 8 0 15 -5 15 -11 0 -5 4 -8 9 -5 5 4 11
1 13 -6 3 -7 24 -13 48 -14 24 -1 46 -6 48 -13 2 -6 12 -11 23 -11 10 0 19 -5
19 -12 0 -6 3 -9 6 -5 4 3 23 -2 43 -12 20 -10 42 -16 50 -13 7 2 17 -1 21 -9
5 -7 17 -14 27 -16 57 -9 83 -16 83 -24 0 -4 9 -6 21 -4 14 3 19 0 16 -9 -9
-23 5 -27 30 -11 13 9 23 11 23 5 0 -5 3 -9 8 -9 21 4 43 -2 38 -9 -5 -9 27
-14 87 -15 15 0 27 -3 27 -7 0 -9 124 -5 139 4 6 4 20 2 32 -5 17 -9 23 -8 30
2 6 10 11 11 17 3 4 -7 15 -8 27 -3 13 5 15 8 5 8 -12 1 -12 3 -2 9 7 5 23 7
35 6 12 -1 25 -3 30 -3 4 -1 7 -7 7 -15 0 -9 10 -13 33 -11 43 4 43 3 29 17
-7 7 -12 16 -12 22 0 5 3 6 6 3 4 -3 15 -2 25 4 16 8 19 6 19 -11 0 -12 5 -18
10 -15 6 4 8 10 6 14 -8 13 12 34 36 37 27 4 63 12 63 14 0 1 31 6 81 13 17 2
36 7 43 11 6 4 11 3 11 -3 0 -16 -8 -19 -89 -35 -8 -1 -17 -8 -19 -15 -3 -10
0 -10 16 -2 10 6 22 7 26 4 3 -3 6 -1 6 4 0 13 18 12 39 -1 9 -6 12 -5 8 1 -4
6 13 18 38 28 24 10 42 22 39 26 -6 10 38 8 52 -3 6 -4 19 -1 29 6 25 18 50
10 30 -10 -7 -8 -20 -14 -28 -14 -8 0 -22 -10 -33 -21 -19 -22 -19 -22 1 -10
28 15 78 35 88 33 4 -1 7 3 7 9 0 5 5 7 10 4 6 -3 10 -2 10 3 0 6 25 18 55 27
30 10 55 21 55 25 0 3 16 12 35 20 19 8 35 17 35 22 0 4 7 8 15 8 9 0 27 8 42
17 18 12 25 13 22 4 -3 -7 -9 -13 -14 -14 -6 -1 -23 -13 -39 -27 -16 -14 -32
-24 -36 -23 -5 1 -14 -4 -20 -12 -7 -8 -18 -15 -25 -15 -7 0 -15 -6 -18 -14
-3 -9 -16 -13 -31 -12 -14 2 -26 -1 -26 -5 0 -8 -57 -43 -72 -44 -3 0 -10 -3
-14 -7 -4 -5 -15 -8 -25 -8 -10 0 -30 -12 -44 -27 -14 -15 -25 -25 -25 -21 0
4 -12 1 -27 -7 -15 -8 -30 -12 -35 -9 -4 3 -8 0 -8 -6 0 -6 -4 -8 -10 -5 -5 3
-10 2 -10 -3 0 -5 -39 -22 -87 -36 -49 -15 -97 -31 -108 -35 -11 -4 -30 -6
-42 -5 -13 1 -23 -2 -23 -6 0 -4 -6 -7 -14 -7 -8 0 -12 6 -9 14 3 7 11 13 18
13 7 0 16 7 19 16 5 13 3 14 -6 7 -13 -10 -43 -18 -107 -29 -23 -4 -31 -3 -27
5 4 6 16 11 27 11 11 0 17 5 14 10 -4 7 -18 4 -38 -9 -18 -11 -36 -19 -40 -19
-5 0 -11 -3 -14 -6 -3 -3 4 -4 16 -1 26 5 26 0 1 -25 -11 -11 -20 -15 -20 -9
0 6 -7 8 -16 5 -12 -5 -15 -2 -10 11 5 16 5 16 -6 2 -11 -12 -17 -13 -37 -3
-20 10 -30 10 -52 -2 -21 -11 -29 -11 -32 -1 -4 9 -6 9 -6 0 -1 -7 -7 -10 -15
-7 -8 3 -23 1 -33 -4 -11 -6 -25 -7 -35 -1 -8 5 -44 11 -79 13 -74 6 -134 13
-134 16 0 3 -55 10 -92 12 -18 1 -33 6 -33 10 0 5 -4 7 -9 3 -5 -3 -12 -1 -16
5 -3 5 -19 10 -35 10 -16 0 -31 4 -34 9 -3 4 -20 12 -38 16 -43 10 -39 9 -73
27 -16 8 -36 13 -42 11 -7 -3 -13 0 -13 5 0 9 -35 26 -50 24 -3 0 -14 5 -25
11 -11 6 -22 12 -25 12 -3 1 -18 7 -33 13 -16 7 -33 12 -38 12 -5 0 -9 4 -9 9
0 5 -13 12 -29 16 -16 3 -49 19 -73 34 -24 15 -56 36 -73 46 -16 11 -33 18
-37 17 -5 -1 -8 2 -8 7 0 5 -8 12 -17 15 -10 3 -29 16 -43 28 -14 13 -41 36
-60 52 -19 15 -56 48 -83 73 -26 24 -47 42 -47 39 0 -3 -20 13 -44 37 -23 23
-63 61 -87 84 -61 58 -133 141 -141 164 -4 10 -12 19 -18 19 -6 0 -9 4 -6 8 3
5 -4 15 -15 22 -10 8 -19 20 -19 26 0 7 -7 15 -16 18 -9 4 -14 9 -11 12 3 4 1
12 -6 19 -7 7 -19 23 -27 35 -8 12 -21 28 -27 36 -7 7 -13 15 -13 19 0 3 -9
15 -20 27 -11 12 -20 28 -20 35 0 7 -4 13 -10 13 -5 0 -10 8 -10 18 0 10 -7
27 -15 38 -8 12 -12 24 -9 27 3 3 -3 12 -15 19 -12 7 -21 21 -21 30 0 10 -5
18 -12 18 -6 0 -8 3 -5 7 4 3 2 12 -4 20 -6 7 -8 13 -5 13 4 0 0 10 -8 21 -8
12 -12 27 -10 34 3 7 -4 32 -15 56 -12 23 -21 48 -21 54 0 6 -9 17 -19 25 -11
7 -18 17 -15 21 2 4 -1 13 -8 21 -7 7 -14 20 -16 28 -1 8 -12 37 -24 63 -17
38 -19 50 -9 56 10 7 10 9 -2 14 -15 5 -40 85 -31 99 3 4 -1 8 -8 8 -9 0 -9 3
-2 8 6 4 10 21 8 37 -4 48 -16 198 -17 218 -1 9 -4 17 -8 17 -3 0 -5 21 -4 48
1 26 -4 52 -11 59 -7 7 -10 25 -8 40 3 16 7 46 10 68 3 22 9 42 12 45 4 3 8
16 9 30 2 23 8 57 13 70 1 3 2 9 1 14 -3 18 11 46 24 46 16 0 29 30 16 43 -5
5 -1 29 11 60 10 29 21 59 23 67 2 8 6 23 10 33 4 10 3 17 -4 17 -6 0 -10 -3
-9 -7 1 -5 -6 -24 -17 -43 -11 -19 -20 -38 -21 -42 -1 -5 -3 -9 -4 -10 -1 -2
-3 -15 -4 -30 -1 -16 -13 -35 -28 -48 -30 -23 -45 -12 -28 20 6 11 8 20 4 20
-3 0 -1 6 5 14 9 11 9 15 -1 19 -10 4 -9 9 4 20 21 17 32 67 15 67 -7 1 -1 10
12 20 13 11 20 20 15 20 -4 0 -3 5 4 12 7 7 12 20 12 31 0 10 4 16 8 13 5 -3
8 7 7 21 0 15 7 35 17 45 10 10 16 23 13 28 -3 4 6 17 20 28 14 11 25 25 25
30 0 17 41 82 51 82 5 0 8 3 7 8 -6 15 47 122 60 122 7 0 11 4 8 8 -3 5 4 19
15 31 11 12 18 25 15 30 -3 5 1 14 9 21 8 7 15 18 15 26 0 7 9 16 21 19 11 4
18 9 16 12 -8 7 25 43 39 43 7 0 15 7 18 16 3 8 10 13 15 9 6 -3 8 -12 4 -20
-4 -11 -1 -13 11 -9 9 3 16 11 16 18 0 13 35 46 49 46 6 0 12 8 16 18 3 11 21
32 41 48 19 16 44 37 54 46 11 10 31 20 45 24 14 3 32 16 40 28 9 11 18 19 21
17 3 -1 17 7 31 18 13 12 36 27 51 34 15 7 35 19 45 27 10 8 21 14 25 14 4 -1
19 7 34 17 14 10 31 19 37 19 6 0 11 4 11 9 0 8 25 19 65 27 11 2 25 10 30 17
14 17 49 22 39 6 -4 -8 -3 -10 5 -5 13 9 44 -12 36 -24 -3 -4 2 -10 9 -13 10
-4 14 1 13 14 -1 10 -8 19 -16 19 -19 0 8 26 60 58 38 23 49 21 49 -10 0 -15
11 -21 36 -17 4 0 10 -5 14 -11 5 -8 14 -3 27 14 12 14 31 27 44 29 13 2 25
10 27 17 3 7 0 10 -7 6 -18 -12 -13 1 12 28 16 17 27 22 38 15 7 -5 10 -9 4
-9 -5 0 -4 -4 4 -9 9 -6 25 -3 45 8 17 10 39 17 49 15 9 -1 23 5 30 14 12 16
29 24 55 25 6 0 12 3 12 7 0 4 24 8 53 9 28 2 81 4 117 6 36 3 74 5 85 5 15 1
16 3 6 9 -7 5 -22 6 -34 3 -17 -4 -19 -2 -13 14 4 10 9 24 10 31 1 7 5 15 8
18 10 11 63 12 76 2 8 -6 12 -6 12 1 0 6 12 11 28 12 102 2 142 6 142 14 0 6
7 1 15 -10 8 -10 15 -15 15 -10 0 5 8 2 18 -7 14 -13 25 -14 57 -6 29 7 49 7
70 -2 17 -7 38 -11 49 -10 10 2 22 -3 26 -9 4 -7 18 -13 31 -14 14 -1 23 -7
21 -15 -2 -9 4 -10 20 -6 38 12 41 11 47 -15 l7 -24 16 22 c9 13 17 20 19 15
9 -20 71 -55 81 -45 7 7 18 5 35 -3 14 -7 34 -12 44 -10 11 2 19 -1 19 -6 0
-6 4 -7 10 -4 5 3 20 -1 32 -9 25 -18 42 -21 33 -7 -3 5 -1 12 5 16 6 3 13 -1
16 -9 3 -9 10 -14 14 -11 5 3 11 1 15 -5 4 -6 11 -8 16 -4 15 9 61 -5 54 -16
-3 -6 -1 -10 5 -10 7 0 10 -6 7 -13 -4 -10 3 -13 21 -12 36 2 95 -28 116 -60
9 -14 22 -23 28 -19 7 4 8 3 4 -4 -4 -8 3 -16 18 -22 14 -5 26 -14 26 -20 0
-5 6 -10 14 -10 7 0 30 -18 50 -40 20 -22 40 -40 45 -40 5 0 11 -4 13 -9 2 -5
10 -11 18 -13 8 -2 28 -15 45 -30 16 -14 46 -40 65 -57 19 -17 38 -31 43 -31
4 0 7 -4 7 -10 0 -12 37 -50 43 -44 2 2 16 -7 31 -21 32 -30 43 -31 48 -7 3
10 -15 36 -46 68 -28 29 -59 63 -70 78 -10 14 -22 23 -27 20 -5 -3 -9 1 -9 10
0 22 -84 99 -88 81 -3 -12 -8 -13 -23 -5 -10 6 -19 17 -19 24 0 7 -11 18 -25
24 -25 12 -59 65 -48 76 4 3 -1 6 -10 6 -10 0 -25 9 -34 20 -11 13 -21 16 -28
10 -17 -14 -51 13 -39 31 11 18 14 39 6 37 -4 -1 -18 3 -32 9 -47 21 -89 35
-92 32 -2 -2 -20 7 -40 19 -21 13 -38 21 -38 17 0 -3 -14 4 -32 16 -17 13 -39
24 -47 24 -32 3 -101 28 -101 37 0 4 -3 7 -7 6 -5 -1 -18 4 -31 11 -13 7 -29
10 -37 8 -7 -3 -18 0 -24 6 -6 6 -21 12 -33 15 -32 5 -39 7 -73 22 -16 7 -67
23 -112 35 -46 13 -87 26 -93 30 -5 3 -10 1 -10 -6 0 -8 -4 -8 -15 1 -8 7 -15
9 -15 5 0 -4 -6 -3 -12 2 -13 11 -23 12 -83 16 -19 1 -35 4 -35 7 0 3 -21 7
-47 7 -26 1 -49 6 -51 11 -1 5 -16 8 -33 6 -20 -3 -35 3 -46 15 -9 11 -23 17
-31 13 -11 -4 -13 -1 -7 7 4 7 -5 5 -21 -5 -22 -15 -27 -16 -22 -4 5 13 -2 15
-36 13 -22 -1 -42 -7 -44 -13 -3 -8 -8 -7 -18 1 -8 6 -14 8 -14 3 0 -5 -4 -4
-8 2 -5 7 -19 7 -44 1z m1552 -3842 c-12 -13 -26 -22 -31 -19 -4 2 -12 -3 -17
-12 -5 -9 -15 -15 -22 -12 -10 3 -9 8 4 19 9 7 22 19 29 25 13 11 36 22 51 23
5 1 -1 -10 -14 -24z"/>
<path d="M1740 5081 c0 -8 -62 -36 -72 -33 -5 1 -8 -2 -8 -8 0 -5 -8 -10 -19
-10 -10 0 -24 -7 -31 -15 -7 -8 -21 -15 -31 -15 -11 0 -19 -4 -19 -8 0 -14
-52 -36 -79 -34 -13 1 -21 -1 -17 -5 3 -3 -3 -12 -14 -20 -27 -19 -25 -26 8
-45 27 -16 29 -16 44 2 9 10 14 21 10 24 -3 3 5 6 19 5 13 -1 42 5 64 14 30
11 39 19 38 35 -2 16 3 20 27 18 16 -1 28 0 27 3 -3 14 29 51 44 51 9 0 27 8
40 19 l22 18 -26 5 c-15 3 -27 2 -27 -1z"/>
<path d="M2863 4846 c1 -5 -6 -12 -17 -14 -13 -3 -16 0 -11 9 5 8 4 10 -3 5
-22 -13 -14 -37 11 -33 37 6 56 18 51 31 -6 15 -34 17 -31 2z"/>
<path d="M2509 4824 c-6 -8 -17 -14 -25 -14 -18 0 -32 -29 -26 -52 2 -10 1
-18 -4 -17 -5 1 -18 1 -29 0 -16 -1 -17 -3 -5 -11 8 -5 17 -6 20 -2 3 4 16 8
30 9 48 3 102 21 121 42 23 25 27 50 4 31 -8 -7 -15 -8 -15 -3 0 5 -13 14 -30
20 -23 9 -32 8 -41 -3z"/>
<path d="M2695 4829 c-4 -6 -5 -12 -2 -15 2 -3 7 2 10 11 7 17 1 20 -8 4z"/>
<path d="M2346 4782 c-3 -5 0 -17 7 -26 12 -16 13 -16 14 3 2 22 -12 37 -21
23z"/>
<path d="M2270 4750 c-9 -6 -10 -10 -3 -10 6 0 15 5 18 10 8 12 4 12 -15 0z"/>
<path d="M2090 4714 c0 -8 5 -12 10 -9 6 4 8 11 5 16 -9 14 -15 11 -15 -7z"/>
<path d="M2318 4717 c-25 -23 -78 -48 -88 -42 -6 3 -10 -1 -10 -9 0 -9 -7 -13
-20 -11 -11 2 -20 0 -20 -5 0 -5 -9 -10 -20 -12 -12 -2 -19 -7 -18 -13 2 -5
10 -9 18 -7 8 2 22 4 30 6 21 4 51 15 82 32 14 8 32 14 40 14 7 0 21 11 30 24
15 20 15 25 3 30 -8 3 -20 0 -27 -7z"/>
<path d="M1873 4679 c-2 -21 5 -23 27 -9 15 9 8 23 -13 26 -7 1 -14 -7 -14
-17z"/>
<path d="M2073 4595 c-19 -21 -16 -27 7 -15 11 6 25 8 30 5 6 -3 10 1 10 9 0
20 -31 20 -47 1z"/>
<path d="M3708 4593 c6 -2 9 -10 6 -15 -5 -7 -2 -8 6 -3 10 6 11 2 6 -19 -4
-18 -2 -26 7 -26 8 0 13 9 12 19 -1 23 -23 51 -39 50 -7 0 -6 -2 2 -6z"/>
<path d="M3675 4571 c-3 -5 -2 -12 3 -15 5 -3 9 1 9 9 0 17 -3 19 -12 6z"/>
<path d="M3774 4541 c5 -8 3 -17 -5 -22 -11 -7 -11 -9 2 -9 9 0 24 -9 34 -20
10 -11 20 -18 23 -16 2 3 -3 12 -12 21 -17 18 -22 40 -7 30 5 -3 13 0 17 6 4
7 3 9 -4 5 -5 -3 -13 0 -15 6 -4 10 -6 9 -6 -1 -1 -11 -4 -11 -18 0 -14 12
-15 12 -9 0z"/>
<path d="M1340 4440 c-8 -5 -10 -10 -5 -10 6 0 17 5 25 10 8 5 11 10 5 10 -5
0 -17 -5 -25 -10z"/>
<path d="M1392 4430 c-12 -20 -12 -21 13 -4 28 18 31 24 12 24 -7 0 -18 -9
-25 -20z"/>
<path d="M3876 4442 c-9 -15 27 -42 44 -32 12 7 11 10 -5 16 -11 4 -23 12 -26
17 -4 5 -9 5 -13 -1z"/>
<path d="M1776 4393 c-11 -11 -6 -21 9 -19 22 3 28 13 11 19 -8 3 -17 3 -20 0z"/>
<path d="M1710 4349 c0 -5 -5 -7 -12 -3 -6 4 -8 3 -4 -4 3 -6 -4 -18 -16 -26
-12 -9 -17 -16 -11 -16 6 0 16 7 23 15 7 8 19 15 26 15 8 0 14 7 14 15 0 8 -4
15 -10 15 -5 0 -10 -5 -10 -11z"/>
<path d="M4267 4299 c7 -7 15 -10 18 -7 3 3 -2 9 -12 12 -14 6 -15 5 -6 -5z"/>
<path d="M4290 4276 c0 -2 8 -10 18 -17 15 -13 16 -12 3 4 -13 16 -21 21 -21
13z"/>
<path d="M1576 4188 l-16 -43 28 30 c30 31 37 55 17 55 -7 0 -19 -19 -29 -42z"/>
<path d="M1555 4199 c-4 -6 -5 -12 -2 -15 2 -3 7 2 10 11 7 17 1 20 -8 4z"/>
<path d="M1536 4143 c-6 -14 -5 -15 5 -6 7 7 10 15 7 18 -3 3 -9 -2 -12 -12z"/>
<path d="M1023 4123 c-7 -2 -13 -10 -13 -17 0 -8 -9 -25 -21 -39 -11 -15 -22
-35 -24 -46 -2 -11 -13 -30 -24 -42 -11 -12 -18 -26 -15 -30 2 -4 -9 -33 -26
-64 -16 -30 -29 -59 -29 -63 1 -4 0 -9 -1 -12 -7 -20 -7 -41 2 -47 7 -3 8 -1
4 5 -4 7 -2 12 4 12 6 0 9 4 6 9 -3 5 0 14 8 20 7 6 26 37 40 69 15 31 33 66
40 77 34 57 40 71 37 84 -1 7 1 20 5 30 4 9 8 22 10 30 1 8 9 18 16 22 14 9 1
11 -19 2z"/>
<path d="M1326 3815 c4 -8 7 -15 9 -15 2 0 5 7 9 15 3 9 0 15 -9 15 -9 0 -12
-6 -9 -15z"/>
<path d="M820 3751 c-11 -21 -14 -48 -4 -38 3 3 6 9 6 14 0 4 4 16 9 26 5 9 7
17 5 17 -3 0 -10 -9 -16 -19z"/>
<path d="M1245 3680 c-3 -6 1 -7 9 -4 18 7 21 14 7 14 -6 0 -13 -4 -16 -10z"/>
<path d="M3636 3651 c-15 -23 226 -121 364 -147 14 -3 43 -10 65 -15 22 -5 51
-12 65 -15 14 -2 33 -7 42 -10 10 -3 28 -7 40 -10 35 -6 69 -14 148 -33 25 -7
53 -14 64 -16 41 -10 108 -49 123 -72 9 -13 17 -45 18 -71 2 -26 3 -50 4 -53
1 -9 103 -5 119 5 6 4 12 12 12 17 0 19 65 80 114 108 62 35 194 83 207 75 5
-3 9 0 9 5 0 6 3 10 8 9 9 -3 106 20 162 39 25 8 56 17 69 19 14 3 29 8 35 12
6 3 16 7 21 7 6 1 19 5 30 9 11 4 38 15 60 23 135 53 213 99 196 116 -7 7 -30
2 -73 -14 -63 -24 -72 -26 -118 -34 -14 -2 -25 -4 -25 -5 0 -4 -78 -16 -155
-25 -128 -15 -155 -22 -219 -54 -82 -41 -125 -65 -131 -72 -6 -7 -37 -18 -70
-24 -16 -3 -25 4 -37 30 -9 18 -25 36 -37 39 -24 7 -71 -23 -71 -45 0 -10 -14
-14 -55 -13 -66 1 -76 4 -120 30 -43 25 -140 62 -160 62 -8 0 -31 3 -50 7 -19
3 -57 8 -85 10 -27 3 -66 7 -85 10 -19 3 -53 7 -75 9 -48 6 -129 20 -145 26
-3 1 -9 3 -15 5 -5 1 -12 3 -15 4 -3 1 -16 4 -29 7 -14 2 -30 9 -38 15 -7 6
-13 8 -13 5 0 -4 -9 -2 -21 4 -40 22 -125 35 -133 21z"/>
<path d="M1125 3180 c3 -5 8 -10 11 -10 2 0 4 5 4 10 0 6 -5 10 -11 10 -5 0
-7 -4 -4 -10z"/>
<path d="M1110 3140 c0 -5 7 -10 16 -10 8 0 12 5 9 10 -3 6 -10 10 -16 10 -5
0 -9 -4 -9 -10z"/>
<path d="M1120 3040 c-9 -6 -10 -10 -3 -10 6 0 15 5 18 10 8 12 4 12 -15 0z"/>
<path d="M907 2936 c-4 -9 -12 -13 -20 -11 -9 4 -13 -3 -13 -20 0 -14 4 -25 9
-25 5 0 7 -6 5 -12 -5 -14 15 -38 30 -38 11 0 10 59 -1 77 -4 6 -3 13 3 15 5
2 6 9 1 16 -7 11 -9 11 -14 -2z"/>
<path d="M1172 2727 c6 -20 17 -38 23 -41 18 -6 6 34 -16 58 -17 18 -18 17 -7
-17z"/>
<path d="M1217 2614 c-3 -4 1 -17 9 -29 12 -18 12 -24 2 -28 -9 -3 -6 -11 10
-26 l23 -22 -7 28 c-4 15 -12 37 -18 48 -5 11 -9 23 -8 28 2 9 -2 9 -11 1z"/>
<path d="M1286 2394 c-3 -8 -10 -12 -16 -9 -5 3 -10 2 -10 -4 0 -14 39 -9 44
6 3 7 1 15 -3 18 -5 3 -12 -2 -15 -11z"/>
<path d="M1310 2346 c0 -9 5 -16 10 -16 6 0 10 4 10 9 0 6 -4 13 -10 16 -5 3
-10 -1 -10 -9z"/>
<path d="M1377 2230 c7 -25 23 -37 23 -17 0 8 -6 20 -14 26 -12 10 -13 8 -9
-9z"/>
<path d="M1110 2203 c0 -6 7 -16 15 -23 12 -10 12 -14 1 -25 -17 -17 -9 -65
11 -65 8 0 12 -4 8 -9 -3 -5 -1 -13 5 -16 6 -4 9 -1 8 6 -2 7 3 14 10 15 6 1
15 2 20 3 4 1 -2 9 -13 19 -11 9 -20 27 -19 39 1 12 -9 32 -22 44 -13 13 -24
18 -24 12z"/>
<path d="M1410 2159 c0 -5 5 -7 10 -4 6 3 10 8 10 11 0 2 -4 4 -10 4 -5 0 -10
-5 -10 -11z"/>
<path d="M1465 2080 c-3 -6 1 -7 9 -4 18 7 21 14 7 14 -6 0 -13 -4 -16 -10z"/>
<path d="M1180 2045 c-10 -12 -10 -15 4 -15 9 0 16 -4 16 -8 0 -5 11 -22 25
-38 23 -27 26 -34 24 -50 0 -4 5 -10 13 -15 7 -4 13 -15 13 -23 0 -9 5 -16 10
-16 6 0 10 10 10 23 0 12 -5 21 -12 20 -7 -2 -13 3 -13 11 0 7 -6 19 -14 25
-8 7 -13 21 -11 32 2 12 -4 24 -16 32 -10 6 -19 17 -19 24 0 17 -15 16 -30 -2z"/>
<path d="M4292 2051 c-8 -4 -13 -11 -13 -15 1 -3 1 -7 0 -8 -13 -44 0 -41 19
5 13 30 13 30 -6 18z"/>
<path d="M1570 1948 c0 -10 6 -17 13 -15 6 1 11 -2 10 -8 0 -5 5 -16 13 -23
24 -22 15 5 -11 35 -19 22 -24 24 -25 11z"/>
<path d="M450 1880 c0 -5 5 -10 11 -10 5 0 7 5 4 10 -3 6 -8 10 -11 10 -2 0
-4 -4 -4 -10z"/>
<path d="M580 1870 c6 -11 15 -20 20 -20 14 0 12 9 -4 26 -21 20 -28 17 -16
-6z"/>
<path d="M4091 1855 c-30 -32 -20 -32 15 0 15 14 23 25 18 25 -5 0 -20 -12
-33 -25z"/>
<path d="M1316 1844 c3 -14 16 -38 29 -52 14 -15 25 -29 25 -33 0 -3 17 -19
38 -36 36 -29 38 -29 39 -10 3 27 -46 73 -72 69 -11 -2 -17 -1 -14 3 4 3 -4
18 -17 32 -13 14 -21 29 -19 34 3 4 1 10 -4 14 -6 3 -8 -6 -5 -21z"/>
<path d="M466 1851 c-4 -5 -2 -12 3 -15 5 -4 12 -2 15 3 4 5 2 12 -3 15 -5 4
-12 2 -15 -3z"/>
<path d="M1662 1846 c7 -8 15 -12 17 -11 5 6 -10 25 -20 25 -5 0 -4 -6 3 -14z"/>
<path d="M621 1819 c-1 -9 7 -23 17 -30 15 -12 16 -12 6 1 -6 8 -14 22 -17 30
-5 13 -6 12 -6 -1z"/>
<path d="M1681 1821 c-23 -15 -5 -38 40 -53 28 -9 45 -22 49 -35 4 -15 10 -18
24 -13 19 6 19 7 -2 22 -12 8 -19 18 -14 22 4 4 2 6 -3 4 -6 -1 -21 7 -35 20
-13 12 -30 22 -37 22 -8 0 -11 5 -8 10 8 12 4 12 -14 1z"/>
<path d="M498 1793 c6 -2 12 -11 12 -19 0 -8 5 -14 10 -14 7 0 7 6 0 20 -6 11
-16 20 -23 19 -9 0 -9 -2 1 -6z"/>
<path d="M3970 1739 c-13 -15 -28 -26 -31 -23 -4 2 -9 -3 -13 -11 -3 -8 -1
-17 4 -20 6 -4 10 -1 10 6 0 7 3 10 6 6 7 -6 34 17 34 29 0 4 7 12 17 19 9 7
12 14 7 17 -5 3 -20 -8 -34 -23z"/>
<path d="M1840 1690 c0 -5 7 -7 15 -4 8 4 15 8 15 10 0 2 -7 4 -15 4 -8 0 -15
-4 -15 -10z"/>
<path d="M1480 1675 c-7 -8 -17 -12 -24 -8 -6 4 -5 -1 2 -10 8 -9 22 -19 32
-22 11 -3 22 -15 25 -26 4 -10 13 -19 20 -19 9 0 12 -6 8 -17 -4 -9 -2 -14 3
-10 5 3 31 -15 58 -39 47 -42 78 -54 91 -34 9 15 -35 59 -53 53 -8 -4 -13 -2
-10 3 9 13 -19 47 -31 39 -6 -3 -14 1 -17 9 -3 9 -17 16 -30 16 -13 0 -23 3
-23 8 1 4 0 10 -1 15 -1 4 -3 11 -4 15 0 5 -8 16 -18 25 -14 14 -18 15 -28 2z"/>
<path d="M3866 1651 c-4 -5 -2 -12 3 -15 5 -4 12 -2 15 3 4 5 2 12 -3 15 -5 4
-12 2 -15 -3z"/>
<path d="M1930 1640 c0 -5 7 -10 15 -10 8 0 15 -7 15 -16 0 -8 4 -13 9 -10 5
3 21 -6 35 -21 30 -30 58 -39 49 -17 -3 8 -8 13 -10 10 -3 -3 -10 -1 -17 5
-28 23 -89 69 -92 69 -2 0 -4 -4 -4 -10z"/>
<path d="M3787 1598 c-9 -16 -21 -26 -27 -23 -5 3 -10 1 -10 -4 0 -18 13 -13
48 18 24 20 30 30 20 33 -8 4 -21 -6 -31 -24z"/>
<path d="M3673 1540 c-13 -10 -23 -26 -23 -35 0 -23 19 -9 32 23 9 23 11 24
17 10 6 -17 7 -17 17 0 16 25 -13 26 -43 2z"/>
<path d="M2090 1522 c0 -8 3 -12 6 -9 4 3 15 2 25 -3 12 -7 20 -6 25 2 4 7 3
8 -4 4 -7 -4 -12 -3 -12 2 0 5 -9 12 -20 15 -14 3 -20 0 -20 -11z"/>
<path d="M3874 1533 c3 -7 -5 -15 -21 -21 -22 -8 -24 -11 -8 -11 11 0 27 4 35
9 13 8 13 11 1 22 -8 8 -11 8 -7 1z"/>
<path d="M3621 1513 c-7 -8 -11 -16 -8 -19 2 -2 10 2 17 11 17 20 9 27 -9 8z"/>
<path d="M3579 1483 c-13 -16 -12 -17 4 -4 16 13 21 21 13 21 -2 0 -10 -8 -17
-17z"/>
<path d="M2210 1474 c0 -11 22 -19 33 -12 1 1 13 -5 27 -12 14 -8 29 -13 33
-12 10 3 67 -30 67 -38 0 -4 6 -7 13 -8 40 -5 54 -9 73 -19 12 -7 24 -9 28 -6
3 3 6 0 6 -7 0 -7 3 -11 6 -7 3 3 27 -1 52 -8 91 -27 227 -38 242 -20 7 8 -6
11 -48 9 -31 -1 -61 1 -67 4 -12 8 -29 11 -72 14 -18 2 -33 7 -33 12 0 4 -6 6
-14 3 -8 -3 -17 -3 -20 1 -4 3 -12 7 -19 8 -42 9 -58 14 -85 28 -17 9 -41 17
-52 19 -12 2 -25 8 -28 14 -4 6 -18 10 -32 9 -14 -1 -33 6 -43 15 -25 23 -67
30 -67 13z"/>
<path d="M3475 1451 c-43 -19 -49 -21 -68 -21 -7 0 -17 -8 -24 -18 -9 -15 -8
-19 3 -19 8 0 14 4 14 9 0 5 4 7 9 4 5 -4 12 0 14 6 3 7 6 3 6 -9 1 -21 21
-44 21 -24 0 6 15 11 33 11 26 1 29 2 15 11 -10 5 -18 15 -18 20 0 6 5 7 10 4
6 -3 10 -1 10 5 0 7 7 10 15 6 9 -3 15 0 15 10 0 8 5 12 10 9 6 -3 10 -1 10 4
0 16 -30 13 -75 -8z"/>
<path d="M3643 1382 c-7 -4 -9 -13 -4 -21 6 -9 10 -7 14 8 3 12 4 21 4 21 -1
0 -7 -4 -14 -8z"/>
<path d="M3145 1352 c-7 -19 3 -32 20 -26 17 7 16 41 -2 41 -6 0 -15 -7 -18
-15z"/>
<path d="M3270 1360 c0 -5 5 -10 10 -10 6 0 10 5 10 10 0 6 -4 10 -10 10 -5 0
-10 -4 -10 -10z"/>
<path d="M3570 1351 c-7 -15 -7 -21 0 -21 12 0 25 28 17 36 -3 3 -10 -4 -17
-15z"/>
<path d="M3026 1345 c-7 -8 -17 -11 -22 -7 -5 4 -2 -1 5 -11 10 -13 17 -14 27
-6 7 6 23 8 36 5 13 -3 17 -3 10 0 -6 3 -10 9 -7 14 9 14 -35 19 -49 5z"/>
<path d="M3236 1348 c3 -5 10 -6 15 -3 13 9 11 12 -6 12 -8 0 -12 -4 -9 -9z"/>
<path d="M2850 1328 c0 -4 4 -8 9 -8 6 0 12 4 15 8 3 5 -1 9 -9 9 -8 0 -15 -4
-15 -9z"/>
<path d="M2914 1331 c4 -5 0 -12 -6 -14 -7 -3 -2 -6 11 -6 20 -1 21 1 11 14
-14 16 -25 21 -16 6z"/>
<path d="M3515 1320 c3 -5 8 -10 11 -10 2 0 4 5 4 10 0 6 -5 10 -11 10 -5 0
-7 -4 -4 -10z"/>
<path d="M3190 1296 c0 -2 7 -7 16 -10 8 -3 12 -2 9 4 -6 10 -25 14 -25 6z"/>
<path d="M3413 1275 c-6 -7 -9 -16 -5 -21 4 -4 -1 -4 -10 -1 -10 4 -18 2 -18
-3 0 -19 39 -10 45 11 8 25 4 31 -12 14z"/>
<path d="M1086 1161 c-19 -7 -19 -8 0 -13 13 -3 21 0 21 8 0 8 -1 14 -1 13 -1
0 -10 -4 -20 -8z"/>
<path d="M4460 1120 c0 -5 5 -10 11 -10 5 0 7 5 4 10 -3 6 -8 10 -11 10 -2 0
-4 -4 -4 -10z"/>
<path d="M2106 1088 c3 -5 10 -6 15 -3 13 9 11 12 -6 12 -8 0 -12 -4 -9 -9z"/>
<path d="M3350 1042 c0 -12 3 -12 18 -1 9 7 19 14 21 16 2 1 -6 1 -18 0 -11
-1 -21 -8 -21 -15z"/>
<path d="M2170 1042 c0 -4 9 -8 20 -9 11 -1 18 2 15 8 -7 11 -35 12 -35 1z"/>
<path d="M4387 1039 c7 -7 15 -10 18 -7 3 3 -2 9 -12 12 -14 6 -15 5 -6 -5z"/>
<path d="M3226 987 c-4 -18 -4 -18 15 -1 23 21 23 21 5 21 -8 0 -17 -9 -20
-20z"/>
<path d="M3180 970 c-8 -5 -10 -10 -5 -10 6 0 17 5 25 10 8 5 11 10 5 10 -5 0
-17 -5 -25 -10z"/>
<path d="M2880 948 c-10 -21 -10 -21 3 -6 8 10 18 14 22 10 5 -4 5 -1 1 6 -10
17 -14 15 -26 -10z"/>
<path d="M2776 935 c-11 -8 -15 -15 -9 -15 6 0 16 7 23 15 16 19 11 19 -14 0z"/>
</g>
</svg>
