<?xml version="1.0" encoding="UTF-8" standalone="no"?>
<svg width="18px" height="4px" viewBox="0 0 18 4" version="1.1" xmlns="http://www.w3.org/2000/svg" xmlns:xlink="http://www.w3.org/1999/xlink">
    <!-- Generator: Sketch 48.2 (47327) - http://www.bohemiancoding.com/sketch -->
    <title>Shape</title>
    <desc>Created with Sketch.</desc>
    <defs></defs>
    <g id="900x900" stroke="none" stroke-width="1" fill="none" fill-rule="evenodd">
        <path d="M0,4.00044449 L0,1.87320813 C1.61117902,1.87320813 2.59528837,1.64318258 4.32348039,1.00011112 L4.6935215,0.8630959 C6.35170575,0.248027559 7.40582287,0 8.94099344,0 C10.449161,0 11.5062785,0.243027003 13.1234582,0.835092788 L13.5695077,0.999111012 C15.308701,1.63918213 16.3338149,1.87320813 18,1.87320813 L18,4.00044449 C16.055784,4.00044449 14.8156462,3.71641293 12.8734304,3.00133348 L12.4303812,2.83831537 C11.016224,2.32125792 10.17013,2.12823647 8.94099344,2.12823647 C7.69085454,2.12823647 6.84776086,2.32525836 5.39259918,2.86331815 L5.02655851,3.00033337 C3.0933437,3.72041338 1.89421047,4.00044449 0,4.00044449 Z" id="Shape" fill="#FEC200" fill-rule="nonzero"></path>
    </g>
</svg>